<?xml version="1.0" encoding="UTF-8" standalone="no"?>
<svg width="20px" height="21px" viewBox="0 0 20 21" version="1.1" xmlns="http://www.w3.org/2000/svg" xmlns:xlink="http://www.w3.org/1999/xlink">
    <!-- Generator: Sketch 39.1 (31720) - http://www.bohemiancoding.com/sketch -->
    <title>instagram-6-icon copy 6</title>
    <desc>Created with Sketch.</desc>
    <defs></defs>
    <g id="Home" stroke="none" stroke-width="1" fill="none" fill-rule="evenodd">
        <g transform="translate(-927.000000, -4257.000000)" id="Group-7-Copy" fill="#FFFFFF">
            <g transform="translate(0.000000, 4152.000000)">
                <g id="1" transform="translate(127.000000, 59.000000)">
                    <g id="Socials" transform="translate(690.693548, 46.866667)">
                        <path d="M127.001879,8.34793871 L125.286873,8.34793871 C125.411808,8.83384927 125.485584,9.34150487 125.485584,9.86621165 C125.485584,13.2200722 122.772098,15.9382018 119.424755,15.9382018 C116.077412,15.9382018 113.363831,13.2200722 113.363831,9.86621165 C113.363831,9.34150487 113.437893,8.83380138 113.562829,8.34793871 L111.847823,8.34793871 L111.847823,16.6971706 C111.847823,17.1158823 112.187104,17.4554689 112.606137,17.4554689 L126.243325,17.4554689 C126.662454,17.4554689 127.001831,17.1158823 127.001831,16.6971706 L127.001831,8.34793871 L127.001879,8.34793871 Z M127.15315,3.06583482 C127.15315,2.63001149 126.800172,2.27657122 126.364357,2.27657122 L124.001262,2.27657122 C123.565895,2.27657122 123.213365,2.63001149 123.213365,3.06583482 L123.213365,5.43397429 C123.213365,5.86949877 123.565895,6.22323789 124.001262,6.22323789 L126.364357,6.22323789 C126.800222,6.22323789 127.15315,5.86949877 127.15315,5.43397429 L127.15315,3.06583482 L127.15315,3.06583482 Z M119.424755,6.07175066 C117.332313,6.07175066 115.636384,7.77030624 115.636384,9.86625955 C115.636384,11.9620213 117.332361,13.6615827 119.424755,13.6615827 C121.517006,13.6615827 123.213317,11.9620213 123.213317,9.86625955 C123.213317,7.77025834 121.517006,6.07175066 119.424755,6.07175066 L119.424755,6.07175066 Z M127.001879,19.7332854 L111.847823,19.7332854 C110.592922,19.7332854 109.575269,18.7136156 109.575269,17.4554689 L109.575269,2.27657122 C109.575269,1.01909503 110.592922,0 111.847823,0 L127.001831,0 C128.256923,0 129.274194,1.01909503 129.274194,2.27657122 L129.274194,17.4554689 C129.274241,18.7136156 128.256971,19.7332854 127.001879,19.7332854 L127.001879,19.7332854 Z" id="instagram-6-icon-copy-6"></path>
                    </g>
                </g>
            </g>
        </g>
    </g>
</svg>