<?xml version="1.0" encoding="UTF-8" standalone="no"?>
<svg width="16px" height="21px" viewBox="0 0 16 21" version="1.1" xmlns="http://www.w3.org/2000/svg" xmlns:xlink="http://www.w3.org/1999/xlink">
    <!-- Generator: Sketch 39.1 (31720) - http://www.bohemiancoding.com/sketch -->
    <title>pinterest-icon copy 6</title>
    <desc>Created with Sketch.</desc>
    <defs></defs>
    <g id="Home" stroke="none" stroke-width="1" fill="none" fill-rule="evenodd">
        <g transform="translate(-976.000000, -4257.000000)" id="Group-7-Copy" fill="#FFFFFF">
            <g transform="translate(0.000000, 4152.000000)">
                <g id="1" transform="translate(127.000000, 59.000000)">
                    <g id="Socials" transform="translate(690.693548, 46.866667)">
                        <path d="M166.909016,0 C161.533279,0 158.822581,3.86101755 158.822581,7.08065557 C158.822581,9.03013128 159.559424,10.7645526 161.139684,11.4109612 C161.398734,11.5170515 161.630961,11.4146492 161.706075,11.1272234 C161.758334,10.92831 161.882074,10.4264525 161.93725,10.2176246 C162.012985,9.93331205 161.983628,9.83359193 161.774543,9.5858243 C161.318887,9.04737396 161.027659,8.35033892 161.027659,7.36305223 C161.027659,4.49856536 163.16709,1.93434048 166.598567,1.93434048 C169.637022,1.93434048 171.306454,3.79420219 171.306454,6.27805706 C171.306454,9.54621405 169.862603,12.3045627 167.719251,12.3045627 C166.535454,12.3045627 165.649435,11.3238857 165.933395,10.1212093 C166.273583,8.68522994 166.932396,7.13564054 166.932396,6.09911644 C166.932396,5.17136486 166.435239,4.39750414 165.406307,4.39750414 C164.196261,4.39750414 163.224179,5.6515254 163.224179,7.33134487 C163.224179,8.4012048 163.585118,9.12487019 163.585118,9.12487019 C163.585118,9.12487019 162.346862,14.3808678 162.129744,15.3012913 C161.697373,17.1344268 162.064671,19.3817218 162.095893,19.6086546 C162.114061,19.7431953 162.286618,19.7751421 162.364648,19.6735062 C162.476291,19.5275661 163.91756,17.7452006 164.407498,15.9643678 C164.546155,15.4601154 165.203485,12.8487606 165.203485,12.8487606 C165.596554,13.5999185 166.745496,14.2615581 167.967304,14.2615581 C171.604662,14.2615581 174.072424,10.9397573 174.072424,6.49339888 C174.072377,3.13117354 171.229619,0 166.909016,0 L166.909016,0 Z" id="pinterest-icon-copy-6"></path>
                    </g>
                </g>
            </g>
        </g>
    </g>
</svg>