<?xml version="1.0" encoding="UTF-8" standalone="no"?>
<svg width="21px" height="17px" viewBox="0 0 21 17" version="1.1" xmlns="http://www.w3.org/2000/svg" xmlns:xlink="http://www.w3.org/1999/xlink">
    <!-- Generator: Sketch 39.1 (31720) - http://www.bohemiancoding.com/sketch -->
    <title>twitter-icon copy 6</title>
    <desc>Created with Sketch.</desc>
    <defs></defs>
    <g id="Home" stroke="none" stroke-width="1" fill="none" fill-rule="evenodd">
        <g transform="translate(-1014.000000, -4259.000000)" id="Group-7-Copy" fill="#FFFFFF">
            <g transform="translate(0.000000, 4152.000000)">
                <g id="1" transform="translate(127.000000, 59.000000)">
                    <g id="Socials" transform="translate(690.693548, 46.866667)">
                        <path d="M216.688172,3.13166084 C215.963424,3.4537165 215.184503,3.67140583 214.366998,3.76916246 C215.201286,3.2681178 215.842218,2.47476117 216.143918,1.52933333 C215.362989,1.99330615 214.498101,2.33020971 213.577511,2.51173722 C212.840331,1.7248945 211.789977,1.23333333 210.627549,1.23333333 C208.018876,1.23333333 206.101195,3.67202848 206.690776,6.20436117 C203.331919,6.03557411 200.353938,4.42371521 198.360665,1.97443495 C197.301992,3.79368544 197.811534,6.17452168 199.611356,7.37954822 C198.948956,7.35856958 198.325619,7.17641942 197.780838,6.87309126 C197.736994,8.74881165 199.078768,10.5027314 201.022315,10.8939495 C200.453533,11.0489903 199.83053,11.0844816 199.197296,10.9632557 C199.711476,12.5716181 201.2041,13.7421113 202.972604,13.7747288 C201.273477,15.1085968 199.133466,15.7043806 196.989247,15.4512479 C198.777738,16.5999003 200.902114,17.270211 203.184416,17.270211 C210.687794,17.270211 214.927031,10.92149 214.671519,5.22736958 C215.461245,4.6565877 216.146356,3.9435534 216.688172,3.13166084 L216.688172,3.13166084 Z" id="twitter-icon-copy-6"></path>
                    </g>
                </g>
            </g>
        </g>
    </g>
</svg>