<?xml version="1.0" encoding="UTF-8" standalone="no"?>
<svg width="11px" height="8px" viewBox="0 0 11 8" version="1.1" xmlns="http://www.w3.org/2000/svg" xmlns:xlink="http://www.w3.org/1999/xlink">
    <!-- Generator: Sketch 39.1 (31720) - http://www.bohemiancoding.com/sketch -->
    <title>Imported Layers</title>
    <desc>Created with Sketch.</desc>
    <defs></defs>
    <g id="Product-Page" stroke="none" stroke-width="1" fill="none" fill-rule="evenodd">
        <g id="Item_Page" transform="translate(-749.000000, -345.000000)" fill="#7E8E6C">
            <path d="M758.563317,345.325 C758.213844,345.325 757.89666,345.466182 757.668111,345.695365 L753.498502,349.864973 L751.861301,348.227772 C751.632118,347.998589 751.315567,347.856774 750.966095,347.856774 C750.266518,347.856774 749.699892,348.424033 749.699892,349.123611 C749.699892,349.473083 749.841706,349.789634 750.070889,350.018817 L752.603296,352.551224 C752.831846,352.780407 753.14903,352.921588 753.498502,352.921588 C753.847975,352.921588 754.164525,352.780407 754.393708,352.551224 L759.458522,347.486409 C759.687705,347.257227 759.82952,346.940676 759.82952,346.59057 C759.82952,345.891626 759.262261,345.325 758.563317,345.325" id="Imported-Layers"></path>
        </g>
    </g>
</svg>