<?xml version="1.0" encoding="utf-8"?>
<!-- Generator: Adobe Illustrator 17.0.0, SVG Export Plug-In . SVG Version: 6.00 Build 0)  -->
<!DOCTYPE svg PUBLIC "-//W3C//DTD SVG 1.1//EN" "http://www.w3.org/Graphics/SVG/1.1/DTD/svg11.dtd">
<svg version="1.1" id="Слой_1" xmlns="http://www.w3.org/2000/svg" xmlns:xlink="http://www.w3.org/1999/xlink" x="0px" y="0px"
	 width="13px" height="40px" viewBox="0 0 13 40" enable-background="new 0 0 13 40" xml:space="preserve">
<g id="Home_1_">
	<g id="item_s-copy-28" transform="translate(-478.000000, -1479.000000)">
		<g transform="translate(420.000000, 1070.000000)">
			<g id="item_s_1_">
				<g id="Group-Copy-5_1_">
					<g id="Group-13_1_" transform="translate(41.000000, 387.000000)">
						<g id="Group-12_1_">
							<path id="Shape_1_" fill="#FFFFFF" d="M28.394,57.115c0.33-0.037,0.491-0.315,0.491-0.647v-3.905
								c0-0.36-0.137-0.44-0.496-0.44h-8.517l-0.786-0.859C18.965,51.142,18.8,51,18.627,51h-0.976C17.291,51,17,51.327,17,51.686
								c0,0.36,0.291,0.686,0.651,0.686h0.707l0.544,0.46v3.636v0.976v1.953c0,0.897,0.78,1.836,1.678,1.836h0.319v0.116
								c0,0.36,0.264,0.651,0.624,0.651s0.624-0.291,0.624-0.651v-0.116h4.493v0.116c0,0.36,0.327,0.651,0.686,0.651
								s0.686-0.291,0.686-0.651v-0.116h0.378c0.36,0,0.651-0.327,0.651-0.686c0-0.359-0.291-0.686-0.651-0.686h-7.81
								c-0.179,0-0.305-0.284-0.305-0.464v-1.37L28.394,57.115L28.394,57.115z M27.638,55.885l-7.363,0.832v-0.249v-2.972h7.363
								V55.885L27.638,55.885z"/>
						</g>
					</g>
				</g>
			</g>
		</g>
	</g>
</g>
<g id="Home_2_">
	<g id="item_s-copy-28_1_" transform="translate(-478.000000, -1479.000000)">
		<g transform="translate(420.000000, 1070.000000)">
			<g id="item_s_2_">
				<g id="Group-Copy-5_2_">
					<g id="Group-13_2_" transform="translate(41.000000, 387.000000)">
						<g id="Group-12_2_">
							<path id="Shape_2_" fill="#414141" d="M28.394,28.115c0.33-0.037,0.491-0.315,0.491-0.647v-3.905
								c0-0.36-0.137-0.44-0.496-0.44h-8.517l-0.786-0.859C18.965,22.142,18.8,22,18.627,22h-0.976C17.291,22,17,22.327,17,22.686
								s0.291,0.686,0.651,0.686h0.707l0.544,0.46v3.636v0.976v1.953c0,0.897,0.78,1.836,1.678,1.836h0.319v0.116
								c0,0.36,0.264,0.651,0.624,0.651s0.624-0.291,0.624-0.651v-0.116h4.493v0.116c0,0.36,0.327,0.651,0.686,0.651
								s0.686-0.291,0.686-0.651v-0.116h0.378c0.36,0,0.651-0.327,0.651-0.686c0-0.359-0.291-0.686-0.651-0.686h-7.81
								c-0.179,0-0.305-0.284-0.305-0.464v-1.37L28.394,28.115L28.394,28.115z M27.638,26.885l-7.363,0.832v-0.249v-2.972h7.363
								V26.885L27.638,26.885z"/>
						</g>
					</g>
				</g>
			</g>
		</g>
	</g>
</g>
</svg>
