<?xml version="1.0" encoding="UTF-8" standalone="no"?>
<svg width="16px" height="15px" viewBox="0 0 16 15" version="1.1" xmlns="http://www.w3.org/2000/svg" xmlns:xlink="http://www.w3.org/1999/xlink">
    <!-- Generator: Sketch 39.1 (31720) - http://www.bohemiancoding.com/sketch -->
    <title>Shape</title>
    <desc>Created with Sketch.</desc>
    <defs></defs>
    <g id="Symbols" stroke="none" stroke-width="1" fill="none" fill-rule="evenodd">
        <g id="#HEAD" transform="translate(-1096.000000, -120.000000)" fill="#FFFFFF">
            <g id="Group-7" transform="translate(150.000000, 87.000000)">
                <g id="2">
                    <path d="M960.374444,41.2438483 C960.785358,41.1982948 960.986695,40.8511244 960.986695,40.4378781 L960.986695,35.5731393 C960.986695,35.1252226 960.816608,35.0252537 960.368692,35.0252537 L949.758462,35.0252537 L948.779606,33.9549801 C948.627554,33.8027724 948.421552,33.626 948.206378,33.626 L946.990271,33.626 C946.542355,33.626 946.179482,34.0331828 946.179482,34.4810995 C946.179482,34.9290162 946.542355,35.336199 946.990271,35.336199 L947.870713,35.336199 L948.548885,35.9089602 L948.548885,40.4381891 L948.548885,41.654296 L948.548885,44.0868209 C948.54904,45.2045137 949.52121,46.3746007 950.639059,46.3746007 L951.036602,46.3746007 L951.036602,46.5191903 C951.036602,46.967107 951.366049,47.3299801 951.813965,47.3299801 C952.261882,47.3299801 952.591329,46.967107 952.591329,46.5191903 L952.591329,46.3746007 L958.188188,46.3746007 L958.188188,46.5191903 C958.188188,46.967107 958.595371,47.3299801 959.043288,47.3299801 C959.491204,47.3299801 959.898387,46.967107 959.898387,46.5191903 L959.898387,46.3746007 L960.368692,46.3746007 C960.816608,46.3746007 961.179482,45.9674179 961.179482,45.5195012 C961.179482,45.07174 960.816608,44.6644017 960.368692,44.6644017 L950.639059,44.6644017 C950.415489,44.6644017 950.259239,44.3103905 950.259239,44.0866654 L950.259239,42.3797313 L960.374444,41.2438483 L960.374444,41.2438483 Z M959.431969,39.7121318 L950.259239,40.7482015 L950.259239,40.4378781 L950.259239,36.7354527 L959.431969,36.7354527 L959.431969,39.7121318 L959.431969,39.7121318 Z" id="Shape"></path>
                </g>
            </g>
        </g>
    </g>
</svg>