<?xml version="1.0" encoding="UTF-8" standalone="no"?>
<svg width="20px" height="26px" viewBox="0 0 20 26" version="1.1" xmlns="http://www.w3.org/2000/svg" xmlns:xlink="http://www.w3.org/1999/xlink">
    <!-- Generator: Sketch 39.1 (31720) - http://www.bohemiancoding.com/sketch -->
    <title>Icon Copy</title>
    <desc>Created with Sketch.</desc>
    <defs></defs>
    <g id="Cart" stroke="none" stroke-width="1" fill="none" fill-rule="evenodd">
        <g id="Cart-2_4" transform="translate(-519.000000, -3038.000000)" fill="#838D8F">
            <path d="M533.448614,3044.36807 C533.448614,3045.89859 533.421557,3047.40178 533.421557,3048.9323 L524.411466,3048.9323 L524.411466,3044.36807 C524.411466,3041.85364 526.061963,3041.63499 528.091263,3041.63499 L529.795875,3041.63499 C531.825174,3041.63499 533.448614,3041.88097 533.448614,3044.36807 L533.448614,3044.36807 Z M538.833023,3050.73613 C538.833023,3049.7249 538.021303,3048.9323 537.047239,3048.9323 L537.047239,3044.36807 C537.047239,3038.95658 533.502729,3038 528.93004,3038 C524.330294,3038 520.812841,3038.95658 520.812841,3044.36807 L520.812841,3048.9323 C519.81172,3048.9323 519,3049.7249 519,3050.73613 L519,3061.66844 C519,3062.67968 519.81172,3063.4996 520.812841,3063.4996 L537.047239,3063.4996 C538.021303,3063.4996 538.833023,3062.67968 538.833023,3061.66844 L538.833023,3050.73613 Z" id="Icon-Copy"></path>
        </g>
    </g>
</svg>