<?xml version="1.0" encoding="utf-8"?>
<!-- Generator: Adobe Illustrator 17.0.0, SVG Export Plug-In . SVG Version: 6.00 Build 0)  -->
<!DOCTYPE svg PUBLIC "-//W3C//DTD SVG 1.1//EN" "http://www.w3.org/Graphics/SVG/1.1/DTD/svg11.dtd">
<svg version="1.1" id="Слой_1" xmlns="http://www.w3.org/2000/svg" xmlns:xlink="http://www.w3.org/1999/xlink" x="0px" y="0px"
	 width="14px" height="54px" viewBox="0 0 14 54" enable-background="new 0 0 14 54" xml:space="preserve">
<title>Rectangle 311 Copy 10</title>
<desc>Created with Sketch.</desc>
<g id="Catalog">
	<g id="Catalog_large" transform="translate(-158.000000, -408.000000)">
		<g id="Category-Copy" transform="translate(157.000000, 273.000000)">
			<path id="Rectangle-311-Copy-10" fill="#222222" d="M3,175h10c1.105,0,2,0.895,2,2v10c0,1.105-0.895,2-2,2H3
				c-1.105,0-2-0.895-2-2v-10C1,175.895,1.895,175,3,175z"/>
		</g>
	</g>
</g>
<g id="Catalog_1_">
	<g id="Catalog_large_1_" transform="translate(-161.000000, -414.000000)">
		<g id="Category-Copy_1_" transform="translate(157.000000, 273.000000)">
			<path id="Imported-Layers" fill="#FFFFFF" d="M14.032,185.177c-0.26,0-0.496,0.105-0.665,0.275l-3.099,3.099l-1.217-1.217
				c-0.17-0.17-0.406-0.276-0.665-0.276c-0.52,0-0.941,0.422-0.941,0.942c0,0.26,0.105,0.495,0.276,0.665l1.882,1.882
				c0.17,0.17,0.406,0.275,0.665,0.275s0.495-0.105,0.665-0.275l3.765-3.765c0.17-0.17,0.276-0.406,0.276-0.666
				C14.973,185.598,14.551,185.177,14.032,185.177"/>
		</g>
	</g>
</g>
<g id="Catalog_2_">
	<g id="Catalog_large_2_" transform="translate(-158.000000, -433.000000)">
		<g id="Category-Copy_2_" transform="translate(157.000000, 273.000000)">
			<path id="Rectangle-311-Copy-5" fill="#EFEFEF" d="M3,160h10c1.105,0,2,0.895,2,2v10c0,1.105-0.895,2-2,2H3c-1.105,0-2-0.895-2-2
				v-10C1,160.895,1.895,160,3,160z"/>
		</g>
	</g>
</g>
</svg>
