<?xml version="1.0" encoding="utf-8"?>
<!-- Generator: Adobe Illustrator 17.0.0, SVG Export Plug-In . SVG Version: 6.00 Build 0)  -->
<!DOCTYPE svg PUBLIC "-//W3C//DTD SVG 1.1//EN" "http://www.w3.org/Graphics/SVG/1.1/DTD/svg11.dtd">
<svg version="1.1" id="Слой_1" xmlns="http://www.w3.org/2000/svg" xmlns:xlink="http://www.w3.org/1999/xlink" x="0px" y="0px"
	 width="20px" height="60px" viewBox="0 0 20 60" enable-background="new 0 0 20 60" xml:space="preserve">
<filter  height="200%" width="200%" filterUnits="objectBoundingBox" x="-50%" id="filter-2" y="-50%">
	<feOffset  dy="1" result="shadowOffsetInner1" in="SourceAlpha" dx="0"></feOffset>
	<feComposite  operator="arithmetic" k2="-1" result="shadowInnerInner1" in2="SourceAlpha" k3="1" in="shadowOffsetInner1">
		</feComposite>
	<feColorMatrix  type="matrix" values="0 0 0 0 0   0 0 0 0 0   0 0 0 0 0  0 0 0 0.1 0" in="shadowInnerInner1"></feColorMatrix>
</filter>
<g id="Compare-Page">
	<g id="Compare-Page--Copy" transform="translate(-448.000000, -257.000000)">
		<g id="Checked" transform="translate(448.000000, 257.000000)">
			<g id="Input-">
				<g>
					<path id="path-1" fill="#D7D8D8" d="M4,0h10c2.209,0,4,1.791,4,4v10c0,2.209-1.791,4-4,4H4c-2.209,0-4-1.791-4-4V4
						C0,1.791,1.791,0,4,0z"/>
				</g>
				<g filter="url(#filter-2)">
					<path id="path-1_2_" fill="#010202" d="M4,0h10c2.209,0,4,1.791,4,4v10c0,2.209-1.791,4-4,4H4c-2.209,0-4-1.791-4-4V4
						C0,1.791,1.791,0,4,0z"/>
				</g>
			</g>
			<path id="Icon" display="none" fill="#FFFFFF" d="M14.335,3.001c-0.817,0.56-1.881,1.725-2.584,2.464
				c-1.406,1.479-2.755,3.024-4.085,4.592l-2.66-2.733L4,8.489C5.463,10.214,7.04,12.073,8.332,14
				C9.984,10.797,12.682,6.204,15,3.785C14.924,3.605,14.601,2.978,14.335,3.001z"/>
		</g>
	</g>
</g>
<g id="Compare-Page_1_">
	<g id="Compare-Page-" transform="translate(-448.000000, -257.000000)">
		<g id="Checked_1_" transform="translate(448.000000, 257.000000)">
			<g id="Input-_1_">
				<g>
					<path id="path-1_5_" fill="#C3A164" d="M4,42h10c2.209,0,4,1.791,4,4v10c0,2.209-1.791,4-4,4H4c-2.209,0-4-1.791-4-4V46
						C0,43.791,1.791,42,4,42z"/>
				</g>
				<g filter="url(#filter-2)">
					<path id="path-1_2_" fill="#010202" d="M4,42h10c2.209,0,4,1.791,4,4v10c0,2.209-1.791,4-4,4H4c-2.209,0-4-1.791-4-4V46
						C0,43.791,1.791,42,4,42z"/>
				</g>
			</g>
			<path id="Icon_1_" fill="#FFFFFF" d="M14.335,45.001c-0.817,0.56-1.881,1.725-2.584,2.464c-1.406,1.479-2.755,3.024-4.085,4.592
				l-2.66-2.733L4,50.489C5.463,52.214,7.04,54.073,8.332,56c1.653-3.203,4.351-7.796,6.668-10.215
				C14.924,45.605,14.601,44.978,14.335,45.001z"/>
		</g>
	</g>
</g>
<path id="Icon_2_" fill="#FFFFFF" d="M14.335,3.501c-0.817,0.56-1.881,1.725-2.584,2.464c-1.406,1.479-2.755,3.024-4.085,4.592
	l-2.66-2.733L4,8.989c1.463,1.725,3.04,3.584,4.332,5.511C9.985,11.297,12.683,6.704,15,4.285
	C14.924,4.105,14.601,3.478,14.335,3.501z"/>
</svg>
