<?xml version="1.0" encoding="utf-8"?>
<!-- Generator: Adobe Illustrator 17.0.0, SVG Export Plug-In . SVG Version: 6.00 Build 0)  -->
<!DOCTYPE svg PUBLIC "-//W3C//DTD SVG 1.1//EN" "http://www.w3.org/Graphics/SVG/1.1/DTD/svg11.dtd">
<svg version="1.1" id="Слой_1" xmlns="http://www.w3.org/2000/svg" xmlns:xlink="http://www.w3.org/1999/xlink" x="0px" y="0px"
	 width="10px" height="10px" viewBox="0 0 10 10" enable-background="new 0 0 10 10" xml:space="preserve">
<title>A</title>
<desc>Created with Sketch.</desc>
<g id="Compare-Page" display="none">
	<g id="Compare-Page-" transform="translate(-524.000000, -350.000000)" display="inline">
		<text transform="matrix(1 0 0 1 523 361)" fill="#747474" font-family="'maxicons'" font-size="12" letter-spacing="1">A</text>
	</g>
</g>
<path fill="#747474" d="M5.994,5l3.265-3.265c0.275-0.275,0.275-0.72,0-0.994s-0.72-0.275-0.994,0L5,4.006L1.735,0.741
	c-0.275-0.275-0.72-0.275-0.994,0s-0.275,0.72,0,0.994L4.006,5L0.741,8.265c-0.275,0.275-0.275,0.72,0,0.994s0.72,0.275,0.994,0
	L5,5.994l3.265,3.265c0.275,0.275,0.72,0.275,0.994,0s0.275-0.72,0-0.994L5.994,5z"/>
</svg>
