<?xml version="1.0" encoding="utf-8"?>
<!-- Generator: Adobe Illustrator 17.0.0, SVG Export Plug-In . SVG Version: 6.00 Build 0)  -->
<!DOCTYPE svg PUBLIC "-//W3C//DTD SVG 1.1//EN" "http://www.w3.org/Graphics/SVG/1.1/DTD/svg11.dtd">
<svg version="1.1" id="Слой_1" xmlns="http://www.w3.org/2000/svg" xmlns:xlink="http://www.w3.org/1999/xlink" x="0px" y="0px"
	 width="15px" height="40px" viewBox="0 0 15 40" enable-background="new 0 0 15 40" xml:space="preserve">
<g id="Home" display="none">
	<g id="item_s-copy-28" transform="translate(-612.000000, -1479.000000)" display="inline">
		<g transform="translate(420.000000, 1070.000000)">
			<g id="item_s">
				<g id="Group-Copy-5">
					<g id="Group-13" transform="translate(41.000000, 387.000000)">
						<g id="Group-11" transform="translate(129.000000, 0.000000)">
							<text transform="matrix(1 0 0 1 22.9032 34.7468)" fill="#757575" font-family="'maxicons'" font-size="12"></text>
						</g>
					</g>
				</g>
			</g>
		</g>
	</g>
</g>
<g id="Home_1_" display="none">
	<g id="item_s-copy-34" transform="translate(-903.000000, -2956.000000)" display="inline">
		<g transform="translate(711.000000, 2547.000000)">
			<g id="item_s_1_">
				<g id="Group-Copy-5_1_">
					<g id="Group-13_1_" transform="translate(41.000000, 387.000000)">
						<g id="Group-11_1_" transform="translate(129.000000, 0.000000)">
							<text transform="matrix(1 0 0 1 22.9034 60.9158)" fill="#594837" font-family="'maxicons'" font-size="12"></text>
						</g>
					</g>
				</g>
			</g>
		</g>
	</g>
</g>
<path fill="#757575" d="M12.172,0.749c-0.009,0-0.017,0.001-0.025,0.001V0.749H4.621v0C4.226,0.749,3.906,1.066,3.899,1.46h0v0.01
	c0,0.001,0,0.002,0,0.003s0,0.002,0,0.003v2.276H1.627v0C1.232,3.752,0.912,4.069,0.905,4.462h0v0.01c0,0.001,0,0.002,0,0.003
	c0,0.001,0,0.002,0,0.003v7.519c0,0.009-0.001,0.017-0.001,0.026c0,0.4,0.324,0.724,0.724,0.724c0,0,0.001,0,0.001,0h7.524v-0.001
	c0.008,0,0.017,0.001,0.025,0.001c0.395,0,0.716-0.317,0.723-0.711h0.001V9.744h2.245V9.743c0.008,0,0.017,0.001,0.025,0.001
	c0.395,0,0.716-0.317,0.723-0.711h0.001V1.472C12.895,1.073,12.571,0.749,12.172,0.749z M8.403,8.246v1.498v1.505h-6v-6h1.496h1.498
	h3.006V8.246z M11.397,8.246H9.901V4.475c0-0.4-0.324-0.724-0.724-0.724c-0.009,0-0.017,0.001-0.025,0.001V3.751H5.397V2.246h6
	V8.246z"/>
<path fill="#FFFFFF" d="M12.172,26.918c-0.009,0-0.017,0.001-0.025,0.001v-0.001H4.621v0c-0.395,0.001-0.715,0.318-0.722,0.711h0
	v0.01c0,0.001,0,0.002,0,0.003c0,0.001,0,0.002,0,0.003v2.276H1.627v0c-0.395,0.001-0.715,0.318-0.722,0.711h0v0.01
	c0,0.001,0,0.002,0,0.003c0,0.001,0,0.002,0,0.003v7.519c0,0.009-0.001,0.017-0.001,0.026c0,0.4,0.324,0.724,0.724,0.724
	c0,0,0.001,0,0.001,0h7.524v-0.001c0.008,0,0.017,0.001,0.025,0.001c0.395,0,0.716-0.317,0.723-0.711h0.001v-2.292h2.245v-0.001
	c0.008,0,0.017,0.001,0.025,0.001c0.395,0,0.716-0.317,0.723-0.711h0.001v-7.561C12.895,27.242,12.571,26.918,12.172,26.918z
	 M8.403,34.415v1.498v1.505h-6v-6h1.496h1.498h3.006V34.415z M11.397,34.415H9.901v-3.771c0-0.4-0.324-0.724-0.724-0.724
	c-0.009,0-0.017,0.001-0.025,0.001V29.92H5.397v-1.505h6V34.415z"/>
</svg>
