<?xml version="1.0" encoding="utf-8"?>
<!-- Generator: Adobe Illustrator 17.0.0, SVG Export Plug-In . SVG Version: 6.00 Build 0)  -->
<!DOCTYPE svg PUBLIC "-//W3C//DTD SVG 1.1//EN" "http://www.w3.org/Graphics/SVG/1.1/DTD/svg11.dtd">
<svg version="1.1" id="Слой_1" xmlns="http://www.w3.org/2000/svg" xmlns:xlink="http://www.w3.org/1999/xlink" x="0px" y="0px"
	 width="10px" height="5.7px" viewBox="36.5 20.65 10 5.7" enable-background="new 36.5 20.65 10 5.7" xml:space="preserve">
<title></title>
<desc>Created with Sketch.</desc>
<path opacity="0.33" fill="#FFFFFF" d="M46.498,21.3c-0.008-0.353-0.291-0.637-0.642-0.637h-8.712c-0.355,0-0.643,0.292-0.643,0.651
	c0,0.04,0.005,0.078,0.012,0.115c0.015,0.136,0.072,0.267,0.174,0.369l4.33,4.33c0.004,0.004,0.007,0.009,0.011,0.014
	c0.033,0.033,0.068,0.061,0.105,0.085c0.034,0.023,0.07,0.042,0.107,0.057c0.001,0,0.002,0.001,0.002,0.001
	c0.025,0.01,0.051,0.017,0.077,0.024c0.016,0.005,0.032,0.011,0.049,0.014c0.003,0,0.005,0,0.008,0.001
	c0.199,0.037,0.41-0.019,0.562-0.171l4.38-4.38C46.447,21.645,46.506,21.472,46.498,21.3z"/>
</svg>
