<?xml version="1.0" encoding="UTF-8" standalone="no"?>
<svg width="95px" height="95px" viewBox="0 0 95 95" version="1.1" xmlns="http://www.w3.org/2000/svg" xmlns:xlink="http://www.w3.org/1999/xlink">
    <!-- Generator: Sketch 39.1 (31720) - http://www.bohemiancoding.com/sketch -->
    <title>Imported Layers</title>
    <desc>Created with Sketch.</desc>
    <defs></defs>
    <g id="Cart" stroke="none" stroke-width="1" fill="none" fill-rule="evenodd">
        <g id="Cart-3-" transform="translate(-653.000000, -378.000000)" fill="#E5E5E5">
            <g id="Text" transform="translate(543.000000, 378.000000)">
                <path d="M174.705882,29.4117647 C173.082353,29.4117647 171.605882,30.0705882 170.541176,31.1352941 L151.176471,50.5058824 L143.570588,42.9 C142.505882,41.8411765 141.035294,41.1823529 139.411765,41.1823529 C136.158824,41.1823529 133.529412,43.8117647 133.529412,47.0647059 C133.529412,48.6882353 134.182353,50.1588235 135.247059,51.2176471 L147.011765,62.9882353 C148.076471,64.0529412 149.547059,64.7058824 151.176471,64.7058824 C152.8,64.7058824 154.270588,64.0529412 155.335294,62.9882353 L178.864706,39.4588235 C179.929412,38.3941176 180.588235,36.9235294 180.588235,35.2941176 C180.588235,32.0470588 177.952941,29.4117647 174.705882,29.4117647 L174.705882,29.4117647 Z M190.329412,13.7823529 C171.952941,-4.59411765 142.158824,-4.59411765 123.782353,13.7823529 C105.405882,32.1647059 105.405882,61.9588235 123.782353,80.3352941 C142.158824,98.7117647 171.952941,98.7117647 190.329412,80.3352941 C208.705882,61.9588235 208.705882,32.1647059 190.329412,13.7823529 L190.329412,13.7823529 Z M182.011765,72.0176471 C168.229412,85.8 145.882353,85.8 132.1,72.0176471 C118.317647,58.2352941 118.317647,35.8882353 132.1,22.1058824 C145.882353,8.32352941 168.229412,8.32352941 182.011765,22.1058824 C195.794118,35.8882353 195.794118,58.2352941 182.011765,72.0176471 L182.011765,72.0176471 Z" id="Imported-Layers"></path>
            </g>
        </g>
    </g>
</svg>