<?xml version="1.0" encoding="utf-8"?>
<!-- Generator: Adobe Illustrator 17.0.0, SVG Export Plug-In . SVG Version: 6.00 Build 0)  -->
<!DOCTYPE svg PUBLIC "-//W3C//DTD SVG 1.1//EN" "http://www.w3.org/Graphics/SVG/1.1/DTD/svg11.dtd">
<svg version="1.1" id="Слой_1" xmlns="http://www.w3.org/2000/svg" xmlns:xlink="http://www.w3.org/1999/xlink" x="0px" y="0px"
	 width="6px" height="8px" viewBox="0 0 6 8" enable-background="new 0 0 6 8" xml:space="preserve">
<title></title>
<desc>Created with Sketch.</desc>
<g id="Product-Page" display="none">
	<g id="Item_Page-2" transform="translate(-582.000000, -187.000000)" display="inline">
		<g id="Group-9" transform="translate(125.000000, 159.000000)">
			<g id="Group-8-Copy-4" transform="translate(284.000000, 24.000000)">
				<text transform="matrix(1 0 0 1 168 15)" fill="#D4D4D4" font-family="'BigBossIcon'" font-size="16"></text>
			</g>
		</g>
	</g>
</g>
<path fill="#D4D4D4" d="M4.41,3.59C4.397,3.577,4.381,3.573,4.367,3.561L0.974,0.168c-0.223-0.223-0.584-0.223-0.807,0
	s-0.223,0.584,0,0.807L3.193,4L0.167,7.026c-0.223,0.223-0.223,0.584,0,0.807s0.584,0.223,0.807,0l3.394-3.394
	C4.381,4.427,4.397,4.423,4.41,4.41C4.523,4.297,4.577,4.148,4.575,4C4.577,3.852,4.523,3.703,4.41,3.59z"/>
</svg>
