<?xml version="1.0" encoding="UTF-8" standalone="no"?>
<svg width="15px" height="15px" viewBox="0 0 15 15" version="1.1" xmlns="http://www.w3.org/2000/svg" xmlns:xlink="http://www.w3.org/1999/xlink">
    <!-- Generator: Sketch 39.1 (31720) - http://www.bohemiancoding.com/sketch -->
    <title>Imported Layers Copy</title>
    <desc>Created with Sketch.</desc>
    <defs></defs>
    <g id="Symbols" stroke="none" stroke-width="1" fill="none" fill-rule="evenodd">
        <g id="#HEAD" transform="translate(-888.000000, -120.000000)" fill="#FFFFFF">
            <g id="Group-7" transform="translate(150.000000, 87.000000)">
                <g id="2">
                    <path d="M752.180917,45.6173914 L749.429525,42.8432146 C751.220113,40.4275929 751.049789,37.0023788 748.874006,34.8078807 C746.485972,32.3993068 742.614807,32.3993068 740.226774,34.8078807 C737.839613,37.2155737 737.839613,41.1200359 740.226774,43.5286098 C742.40343,45.7239888 745.799434,45.8948971 748.194456,44.0889072 L750.944974,46.8639649 C751.286496,47.2075435 751.839395,47.2075435 752.180917,46.8639649 C752.521566,46.5195054 752.521566,45.9618509 752.180917,45.6173914 L752.180917,45.6173914 Z M747.638936,42.2829172 C745.933073,44.002572 743.167706,44.002572 741.462716,42.2829172 C739.756853,40.5623814 739.756853,37.7732281 741.462716,36.0535733 C743.167706,34.3330375 745.933073,34.3330375 747.638936,36.0535733 C749.343926,37.7732281 749.343926,40.5623814 747.638936,42.2829172 L747.638936,42.2829172 Z" id="Imported-Layers-Copy"></path>
                </g>
            </g>
        </g>
    </g>
</svg>