<?xml version="1.0" encoding="utf-8"?>
<!-- Generator: Adobe Illustrator 17.0.0, SVG Export Plug-In . SVG Version: 6.00 Build 0)  -->
<!DOCTYPE svg PUBLIC "-//W3C//DTD SVG 1.1//EN" "http://www.w3.org/Graphics/SVG/1.1/DTD/svg11.dtd">
<svg version="1.1" id="Слой_1" xmlns="http://www.w3.org/2000/svg" xmlns:xlink="http://www.w3.org/1999/xlink" x="0px" y="0px"
	 width="40px" height="40px" viewBox="0 0 40 40" enable-background="new 0 0 40 40" xml:space="preserve">
<g id="Home" display="none">
	<g id="Menu_cart_4" transform="translate(-18.000000, -804.000000)" display="inline">
		<g id="Group-Copy-13" transform="translate(-147.000000, 781.000000)">
			<text transform="matrix(1 0 0 1 165.2029 35.3816)" fill="#9C9B9B" font-family="'maxicons'" font-size="13">l</text>
		</g>
	</g>
</g>
<g id="Home_1_" display="none">
	<g id="Menu_cart_4_1_" transform="translate(-1368.000000, -804.000000)" display="inline">
		<g id="Group-Copy-12" transform="translate(1345.000000, 781.000000)">
			<text transform="matrix(1 0 0 1 49.8036 35.3816)" fill="#9C9B9B" font-family="'maxicons'" font-size="13">m</text>
		</g>
	</g>
</g>
<g id="Home_2_" display="none">
	<g id="Menu_cart_4_2_" transform="translate(-18.000000, -804.000000)" display="inline">
		<g id="Group-Copy-13_1_" transform="translate(-147.000000, 781.000000)">
			<text transform="matrix(1 0 0 1 165.2031 63.0004)" fill="#010202" font-family="'maxicons'" font-size="13">l</text>
		</g>
	</g>
</g>
<g id="Home_3_" display="none">
	<g id="Menu_cart_4_3_" transform="translate(-1368.000000, -804.000000)" display="inline">
		<g id="Group-Copy-12_1_" transform="translate(1345.000000, 781.000000)">
			<text transform="matrix(1 0 0 1 49.8036 62.9998)" fill="#010202" font-family="'maxicons'" font-size="13">m</text>
		</g>
	</g>
</g>
<path fill="#9C9B9B" d="M11.562,5.062H3.788l2.656-2.66c0.317-0.318,0.317-0.832-0.001-1.149S5.612,0.937,5.294,1.254L1.257,5.298
	C1.255,5.299,1.253,5.299,1.252,5.301C1.208,5.345,1.185,5.399,1.153,5.45c-0.024,0.038-0.057,0.07-0.074,0.112
	c-0.084,0.201-0.084,0.427,0,0.628c0.017,0.041,0.049,0.072,0.073,0.11c0.032,0.051,0.056,0.106,0.1,0.151l4.044,4.043
	c0.317,0.317,0.832,0.317,1.149,0s0.317-0.832,0-1.149L3.788,6.688h7.774c0.449,0,0.812-0.364,0.812-0.812
	S12.011,5.062,11.562,5.062z"/>
<path fill="#9C9B9B" d="M28.453,6.684h7.775l-2.656,2.66c-0.317,0.318-0.317,0.832,0.001,1.149s0.832,0.317,1.149-0.001l4.038-4.043
	c0.001-0.001,0.003-0.002,0.005-0.003c0.044-0.044,0.067-0.099,0.099-0.149c0.024-0.038,0.057-0.07,0.074-0.112
	c0.084-0.201,0.084-0.427,0-0.628c-0.017-0.041-0.049-0.072-0.073-0.11c-0.032-0.051-0.056-0.106-0.1-0.151l-4.044-4.043
	c-0.317-0.317-0.832-0.317-1.149,0s-0.317,0.832,0,1.149l2.657,2.656h-7.774c-0.449,0-0.812,0.364-0.812,0.812
	S28.005,6.684,28.453,6.684z"/>
<path fill="#010202" d="M28.469,34.309h7.775l-2.656,2.66c-0.317,0.318-0.317,0.832,0.001,1.149s0.832,0.317,1.149-0.001
	l4.038-4.043c0.001-0.001,0.003-0.002,0.005-0.003c0.044-0.044,0.067-0.099,0.099-0.149c0.024-0.038,0.057-0.07,0.074-0.112
	c0.084-0.201,0.084-0.427,0-0.628c-0.017-0.041-0.049-0.072-0.073-0.11c-0.032-0.051-0.056-0.106-0.1-0.151l-4.044-4.043
	c-0.317-0.317-0.832-0.317-1.149,0s-0.317,0.832,0,1.149l2.657,2.656h-7.774c-0.449,0-0.812,0.364-0.812,0.812
	S28.02,34.309,28.469,34.309z"/>
<path fill="#010202" d="M11.562,32.688H3.788l2.656-2.66c0.317-0.318,0.317-0.832-0.001-1.149s-0.832-0.317-1.149,0.001
	l-4.038,4.043c-0.001,0.001-0.003,0.002-0.005,0.003c-0.044,0.044-0.067,0.099-0.099,0.149c-0.024,0.038-0.057,0.07-0.074,0.112
	c-0.084,0.201-0.084,0.427,0,0.628c0.017,0.041,0.049,0.072,0.073,0.11c0.032,0.051,0.056,0.106,0.1,0.151l4.044,4.043
	c0.317,0.317,0.832,0.317,1.149,0s0.317-0.832,0-1.149l-2.657-2.656h7.774c0.449,0,0.812-0.364,0.812-0.812
	S12.011,32.688,11.562,32.688z"/>
</svg>
