<?xml version="1.0" encoding="utf-8"?>
<!-- Generator: Adobe Illustrator 17.0.0, SVG Export Plug-In . SVG Version: 6.00 Build 0)  -->
<!DOCTYPE svg PUBLIC "-//W3C//DTD SVG 1.1//EN" "http://www.w3.org/Graphics/SVG/1.1/DTD/svg11.dtd">
<svg version="1.1" id="Слой_1" xmlns="http://www.w3.org/2000/svg" xmlns:xlink="http://www.w3.org/1999/xlink" x="0px" y="0px"
	 width="14px" height="14px" viewBox="0 0 14 14" enable-background="new 0 0 14 14" xml:space="preserve">
<g id="Home" display="none">
	<g id="Group-4" transform="translate(-359.000000, -1095.000000)" display="inline">
		<g transform="translate(351.000000, 1088.000000)">
			<text transform="matrix(1.0125 0 0 1 8.6875 20.1777)" fill="#F7A724" font-family="'maxicons'" font-size="12.8397">-</text>
		</g>
	</g>
</g>
<g id="Home_1_" display="none">
	<g id="Group-4_1_" transform="translate(-359.000000, -1095.000000)" display="inline">
		<g transform="translate(351.000000, 1088.000000)">
			<text transform="matrix(1 0 0 1 11.4848 17.5839)" fill="#2C4496" font-family="'maxicons'" font-size="7.0318">-</text>
		</g>
	</g>
</g>
<path fill="#F6A724" d="M13.708,5.792c-0.12-0.599-0.667-0.646-0.667-0.646H9.229L7.875,1.438c0,0-0.125-0.359-0.729-0.354
	C6.542,1.089,6.417,1.479,6.417,1.479L5.229,5.146L1.271,5.167c0,0-0.49,0.13-0.583,0.625c-0.094,0.495,0.25,0.729,0.25,0.729
	l3.104,2.062l-1.167,3.458c0,0-0.094,0.568,0.333,0.75c0.318,0.182,0.875,0,0.875,0l3.104-2.25l3.104,2.25c0,0,0.307,0.24,0.865,0
	c0.557-0.24,0.365-0.854,0.365-0.854l-1.188-3.417l2.917-1.875C13.25,6.646,13.828,6.391,13.708,5.792z M9.728,7.075L8.509,7.858
	l0.496,1.429c0,0,0.081,0.257-0.152,0.357s-0.362,0-0.362,0L7.194,8.703L5.896,9.644c0,0-0.233,0.076-0.366,0
	C5.351,9.568,5.391,9.331,5.391,9.331l0.488-1.446L4.58,7.022c0,0-0.144-0.098-0.105-0.305C4.515,6.511,4.72,6.456,4.72,6.456
	l1.655-0.009l0.497-1.533c0,0,0.052-0.163,0.305-0.165c0.253-0.002,0.305,0.148,0.305,0.148l0.566,1.55h1.594
	c0,0,0.229,0.02,0.279,0.27C9.97,6.968,9.728,7.075,9.728,7.075z"/>
</svg>
