<?xml version="1.0" encoding="UTF-8" standalone="no"?>
<svg width="13px" height="13px" viewBox="0 0 13 13" version="1.1" xmlns="http://www.w3.org/2000/svg" xmlns:xlink="http://www.w3.org/1999/xlink">
    <!-- Generator: Sketch 39.1 (31720) - http://www.bohemiancoding.com/sketch -->
    <title></title>
    <desc>Created with Sketch.</desc>
    <defs></defs>
    <g id="Home" stroke="none" stroke-width="1" fill="none" fill-rule="evenodd">
        <g transform="translate(-482.000000, -972.000000)" id="" stroke="#B9B583" fill="#B9B583">
            <path d="M488.229803,971.518082 C488.439472,971.518082 488.614194,971.587971 488.753974,971.72775 C488.905401,971.879178 488.981114,972.053899 488.981114,972.25192 L488.981114,978.227463 L494.939184,978.227463 C495.148853,978.227463 495.323575,978.297352 495.463355,978.437131 C495.614782,978.588559 495.690495,978.76328 495.690495,978.961301 C495.690495,979.170971 495.614782,979.351516 495.463355,979.502944 C495.323575,979.642724 495.148853,979.712612 494.939184,979.712612 L488.981114,979.712612 L488.981114,985.670682 C488.981114,985.880352 488.905401,986.060897 488.753974,986.212325 C488.614194,986.352105 488.439472,986.421993 488.229803,986.421993 C488.020134,986.421993 487.845412,986.352105 487.705633,986.212325 C487.554205,986.060897 487.478492,985.880352 487.478492,985.670682 L487.478492,979.712612 L481.520422,979.712612 C481.310753,979.712612 481.136031,979.642724 480.996252,979.502944 C480.844824,979.351516 480.769111,979.170971 480.769111,978.961301 C480.769111,978.76328 480.844824,978.588559 480.996252,978.437131 C481.136031,978.297352 481.310753,978.227463 481.520422,978.227463 L487.478492,978.227463 L487.478492,972.25192 C487.478492,972.053899 487.554205,971.879178 487.705633,971.72775 C487.845412,971.587971 488.020134,971.518082 488.229803,971.518082 L488.229803,971.518082 Z" transform="translate(488.229803, 978.970038) rotate(-315.000000) translate(-488.229803, -978.970038) "></path>
        </g>
    </g>
</svg>