<?xml version="1.0" encoding="UTF-8" standalone="no"?>
<svg width="16px" height="17px" viewBox="0 0 16 17" version="1.1" xmlns="http://www.w3.org/2000/svg" xmlns:xlink="http://www.w3.org/1999/xlink">
    <!-- Generator: Sketch 39.1 (31720) - http://www.bohemiancoding.com/sketch -->
    <title>Imported Layers Copy 2</title>
    <desc>Created with Sketch.</desc>
    <defs></defs>
    <g id="Symbols" stroke="none" stroke-width="1" fill="none" fill-rule="evenodd">
        <g id="#HEAD" transform="translate(-1245.000000, -118.000000)" fill="#FFFFFF">
            <g id="Group-7" transform="translate(150.000000, 87.000000)">
                <g id="2">
                    <path d="M1108.0377,41.1486538 C1108.39341,40.2808965 1108.61198,39.3180424 1108.61198,38.2838658 C1108.61198,34.7036912 1106.21305,31.8 1103.25484,31.8 C1100.29555,31.8 1097.8977,34.7036912 1097.8977,38.2838658 C1097.8977,39.3180424 1098.1152,40.2808965 1098.47091,41.1486538 C1096.82412,42.5362011 1095.75484,44.5959092 1095.75484,46.9290202 C1095.75484,47.5266165 1096.23377,48.0107451 1096.82627,48.0107451 C1097.4177,48.0107451 1097.8977,47.5266165 1097.8977,46.9290202 C1097.8977,45.3761343 1098.55662,43.9853451 1099.59698,42.9997975 C1100.55591,44.089087 1101.83627,44.7688122 1103.25484,44.7688122 C1104.67234,44.7688122 1105.9527,44.089087 1106.91162,42.9997975 C1107.95198,43.9853451 1108.61198,45.3761343 1108.61198,46.9290202 C1108.61198,47.5266165 1109.09091,48.0107451 1109.68341,48.0107451 C1110.27484,48.0107451 1110.75484,47.5266165 1110.75484,46.9290202 C1110.75484,44.5959092 1109.68448,42.5362011 1108.0377,41.1486538 L1108.0377,41.1486538 Z M1103.25484,42.6075236 C1101.47948,42.6075236 1100.04055,40.6720897 1100.04055,38.2838658 C1100.04055,35.8967225 1101.47948,33.9623692 1103.25484,33.9623692 C1105.0302,33.9623692 1106.46912,35.8967225 1106.46912,38.2838658 C1106.46912,40.6720897 1105.0302,42.6075236 1103.25484,42.6075236 L1103.25484,42.6075236 Z" id="Imported-Layers-Copy-2"></path>
                </g>
            </g>
        </g>
    </g>
</svg>